# xmcd
#
# Track frame offsets: 
#        150
#        18023
#        42972
#        72576
#        91306
#        108800
#        132930
#        158851
#        188481
#        218082
#        233454
#
# Disc length: 3398 seconds
#
# Revision: 0
# Processed by: cddbd v1.5.2PL0 Copyright (c) Steve Scherf et al.
# Submitted via: ExactAudioCopy v1.0b4
#
DISCID=820d440b
DTITLE=Zach Day - Redefined
DYEAR=2015
DGENRE=Blues
TTITLE0=Back to the Beginning
TTITLE1=We'll stay
TTITLE2=Midnight Passion
TTITLE3=Another Time, Another Place
TTITLE4=I Don't Know
TTITLE5=We Could Never Mend
TTITLE6=I Know
TTITLE7=It Has Changed
TTITLE8=Keep Movin' On
TTITLE9=Won't Be Back Around
TTITLE10=Little by Little
EXTD=
EXTT0=
EXTT1=
EXTT2=
EXTT3=
EXTT4=
EXTT5=
EXTT6=
EXTT7=
EXTT8=
EXTT9=
EXTT10=
PLAYORDER=
